<?xml version="1.0" encoding="UTF-8" standalone="no"?>
<svg
   xmlns:dc="http://purl.org/dc/elements/1.1/"
   xmlns:cc="http://creativecommons.org/ns#"
   xmlns:rdf="http://www.w3.org/1999/02/22-rdf-syntax-ns#"
   xmlns:svg="http://www.w3.org/2000/svg"
   xmlns="http://www.w3.org/2000/svg"
   id="svg1574"
   version="1.1"
   viewBox="0 0 32.411903 34.595219"
   height="34.595219mm"
   width="32.411903mm">
  <defs
     id="defs1568" />
  <metadata
     id="metadata1571">
    <rdf:RDF>
      <cc:Work
         rdf:about="">
        <dc:format>image/svg+xml</dc:format>
        <dc:type
           rdf:resource="http://purl.org/dc/dcmitype/StillImage" />
        <dc:title></dc:title>
      </cc:Work>
    </rdf:RDF>
  </metadata>
  <g
     transform="translate(-317.925,-42.42263)"
     id="layer1">
    <g
       transform="translate(187.68424,-132.33466)"
       aria-label="30"
       id="text1549"
       style="font-style:normal;font-variant:normal;font-weight:bold;font-stretch:normal;font-size:12.1439px;line-height:1.25;font-family:'Microsoft Sans Serif';-inkscape-font-specification:'Microsoft Sans Serif Bold';stroke-width:0.227697">
      <path
         id="path1554"
         style="font-style:normal;font-variant:normal;font-weight:bold;font-stretch:normal;font-size:12.1439px;font-family:'Microsoft Sans Serif';-inkscape-font-specification:'Microsoft Sans Serif Bold';stroke-width:0.227697"
         d="m 149.71974,188.95591 q 2.83436,0 2.83436,4.50652 0,4.48281 -2.83436,4.48281 -2.82844,0 -2.82844,-4.48281 0,-4.50652 2.82844,-4.50652 z m 0,8.11174 q 0.82422,0 1.25115,-0.79457 0.42693,-0.79457 0.42693,-2.81065 0,-2.02201 -0.42693,-2.82251 -0.42693,-0.80643 -1.25115,-0.80643 -0.81829,0 -1.24523,0.80643 -0.42693,0.8005 -0.42693,2.82251 0,2.01608 0.42693,2.81065 0.42694,0.79457 1.24523,0.79457 z m -5.55608,-4.04401 q 0.79458,0.20754 1.22151,0.80643 0.43286,0.59889 0.43286,1.40532 0,1.20372 -0.82422,1.95678 -0.82422,0.75307 -2.04572,0.75307 -1.22744,0 -1.99829,-0.67005 -0.77085,-0.67005 -0.83015,-1.77296 h 1.15628 q 0,0.6404 0.43286,1.10291 0.43287,0.46251 1.2393,0.46251 0.78271,0 1.24522,-0.50402 0.46844,-0.50402 0.46844,-1.30452 0,-0.81829 -0.48623,-1.25708 -0.4803,-0.44472 -1.40532,-0.44472 h -0.42693 v -0.87166 h 0.25497 q 1.62472,0 1.62472,-1.49427 0,-0.65819 -0.35578,-1.00804 -0.35578,-0.34985 -1.00211,-0.34985 -1.32824,0 -1.48241,1.38161 h -1.15035 q 0.12453,-1.10291 0.84201,-1.67809 0.71749,-0.5811 1.76703,-0.5811 1.16221,0 1.85005,0.63447 0.68784,0.62854 0.68784,1.62472 0,0.55738 -0.30241,1.05547 -0.29648,0.49216 -0.91317,0.75307 z m 2.28321,-18.26635 -6.86263,3.3569 6.87917,3.62148 -0.0165,-2.81119 c 5.75737,2e-5 10.9467,3.47134 13.14442,8.79274 2.19783,5.32166 0.97005,11.44344 -3.10989,15.50603 -4.0797,4.06245 -10.20629,5.26431 -15.51843,3.04426 -5.31225,-2.2201 -8.76177,-7.42417 -8.73745,-13.18162 l 0.008,-0.008 h -1.99265 c -0.0277,6.56074 3.9031,12.49088 9.9565,15.02079 6.05348,2.52999 13.03516,1.16042 17.68419,-3.46904 4.64891,-4.62947 6.04785,-11.60519 3.54346,-17.66921 -2.50423,-6.06405 -8.41763,-10.01992 -14.97842,-10.02006 z" />
    </g>
  </g>
</svg>
