<?xml version="1.0" encoding="UTF-8" standalone="no"?>
<svg
   xmlns:dc="http://purl.org/dc/elements/1.1/"
   xmlns:cc="http://creativecommons.org/ns#"
   xmlns:rdf="http://www.w3.org/1999/02/22-rdf-syntax-ns#"
   xmlns:svg="http://www.w3.org/2000/svg"
   xmlns="http://www.w3.org/2000/svg"
   id="svg4072"
   version="1.1"
   viewBox="0 0 4.6136718 5.6257801"
   height="5.6257801mm"
   width="4.6136718mm">
  <defs
     id="defs4066" />
  <metadata
     id="metadata4069">
    <rdf:RDF>
      <cc:Work
         rdf:about="">
        <dc:format>image/svg+xml</dc:format>
        <dc:type
           rdf:resource="http://purl.org/dc/dcmitype/StillImage" />
        <dc:title></dc:title>
      </cc:Work>
    </rdf:RDF>
  </metadata>
  <g
     transform="translate(-30.018655,-14.154745)"
     id="layer1">
    <g
       id="g4702"
       transform="translate(-108.24494,-139.05969)">
      <g
         id="g4717"
         transform="translate(1.6026885,5.4671508)">
        <path
           d="m 147.84357,-140.67029 h 0.0444 c 0.0533,0 0.0963,0.0429 0.0963,0.0963 v 3.24125 c 0,0.0533 -0.0429,0.0963 -0.0963,0.0963 h -0.0444 c -0.0533,0 -0.0963,-0.043 -0.0963,-0.0963 v -3.24125 c 0,-0.0533 0.043,-0.0963 0.0963,-0.0963 z"
           style="fill:#000000;fill-opacity:1;stroke:none;stroke-width:1.7262;stroke-opacity:1"
           id="path4713"
           width="0.2370103"
           height="3.4338233"
           x="147.74728"
           y="-140.67029"
           ry="0.096289292"
           transform="rotate(90)" />
        <path
           id="path4715"
           style="fill:#000000;fill-opacity:1;stroke:none;stroke-width:8.00001;stroke-opacity:1"
           d="m 516.87695,561.55273 c -0.20182,0 -0.36328,0.16184 -0.36328,0.36329 v 17.39843 c 0,0.20183 0.16183,0.36328 0.36328,0.36328 h 16.70899 c 0.20145,0 0.36523,-0.16183 0.36523,-0.36328 v -17.39843 c 0,-0.20183 -0.16378,-0.36329 -0.36523,-0.36329 z m 6.6543,5.97852 4.375,2.96875 -4.375,2.75 z"
           transform="scale(0.26458333)" />
      </g>
    </g>
  </g>
</svg>
