<?xml version="1.0" encoding="UTF-8" standalone="no"?>
<svg
   xmlns:dc="http://purl.org/dc/elements/1.1/"
   xmlns:cc="http://creativecommons.org/ns#"
   xmlns:rdf="http://www.w3.org/1999/02/22-rdf-syntax-ns#"
   xmlns:svg="http://www.w3.org/2000/svg"
   xmlns="http://www.w3.org/2000/svg"
   id="svg4072"
   version="1.1"
   viewBox="0 0 4.6136399 5.6257362"
   height="5.6257362mm"
   width="4.6136398mm">
  <defs
     id="defs4066" />
  <metadata
     id="metadata4069">
    <rdf:RDF>
      <cc:Work
         rdf:about="">
        <dc:format>image/svg+xml</dc:format>
        <dc:type
           rdf:resource="http://purl.org/dc/dcmitype/StillImage" />
        <dc:title></dc:title>
      </cc:Work>
    </rdf:RDF>
  </metadata>
  <g
     transform="translate(-28.4158,-8.6875939)"
     id="layer1">
    <g
       id="g4702"
       transform="translate(-108.24494,-139.05969)">
      <path
         style="fill:#000000;fill-opacity:1;stroke:none;stroke-width:1.7262;stroke-opacity:1"
         id="path4696"
         width="0.2370103"
         height="3.4338233"
         x="147.74728"
         y="-140.67029"
         ry="0.096289292"
         d="m 147.84357,-140.67029 h 0.0444 c 0.0533,0 0.0963,0.0429 0.0963,0.0963 v 3.24125 c 0,0.0533 -0.0429,0.0963 -0.0963,0.0963 h -0.0444 c -0.0533,0 -0.0963,-0.043 -0.0963,-0.0963 v -3.24125 c 0,-0.0533 0.043,-0.0963 0.0963,-0.0963 z"
         transform="rotate(90)" />
      <path
         id="path4698"
         style="fill:#000000;fill-opacity:1;stroke:none;stroke-width:2.11667;stroke-opacity:1"
         d="m 136.75684,148.57748 c -0.0534,0 -0.0961,0.0428 -0.0961,0.0961 v 4.60334 c 0,0.0534 0.0428,0.0961 0.0961,0.0961 h 4.42144 c 0.0534,0 0.0961,-0.0428 0.0961,-0.0961 v -4.60334 c 0,-0.0534 -0.0428,-0.0961 -0.0961,-0.0961 z m 0.19792,0.21446 h 4.02559 c 0.0486,0 0.0879,0.0387 0.0879,0.0873 v 4.19199 c 0,0.0486 -0.0392,0.0873 -0.0879,0.0873 h -4.02559 c -0.0486,0 -0.0879,-0.0387 -0.0879,-0.0873 v -4.19199 c 0,-0.0486 0.0393,-0.0873 0.0879,-0.0873 z" />
      <path
         style="fill:#000000;fill-opacity:1;stroke:none;stroke-width:0.264583px;stroke-linecap:butt;stroke-linejoin:miter;stroke-opacity:1"
         d="m 138.51764,150.15931 v 1.51308 l 1.15755,-0.7276 z"
         id="path4700" />
    </g>
  </g>
</svg>
