<?xml version="1.0" encoding="UTF-8" standalone="no"?>
<svg
   xmlns:dc="http://purl.org/dc/elements/1.1/"
   xmlns:cc="http://creativecommons.org/ns#"
   xmlns:rdf="http://www.w3.org/1999/02/22-rdf-syntax-ns#"
   xmlns:svg="http://www.w3.org/2000/svg"
   xmlns="http://www.w3.org/2000/svg"
   id="svg4072"
   version="1.1"
   viewBox="0 0 4.795085 4.7803149"
   height="4.7803149mm"
   width="4.795085mm">
  <defs
     id="defs4066" />
  <metadata
     id="metadata4069">
    <rdf:RDF>
      <cc:Work
         rdf:about="">
        <dc:format>image/svg+xml</dc:format>
        <dc:type
           rdf:resource="http://purl.org/dc/dcmitype/StillImage" />
        <dc:title></dc:title>
      </cc:Work>
    </rdf:RDF>
  </metadata>
  <g
     transform="translate(-39.179839,-27.091983)"
     id="layer1">
    <g
       id="g4051"
       transform="translate(-85.32028,-121.1965)">
      <path
         style="fill:#000000;fill-opacity:1;stroke:none;stroke-width:2.84374;stroke-opacity:1"
         id="path4043"
         width="0.46204346"
         height="4.7802997"
         x="128.83316"
         y="148.28848"
         ry="0.13404642"
         d="m 128.96721,148.28848 h 0.19395 c 0.0743,0 0.13404,0.0598 0.13404,0.13405 v 4.51221 c 0,0.0743 -0.0598,0.13404 -0.13404,0.13404 h -0.19395 c -0.0743,0 -0.13405,-0.0598 -0.13405,-0.13404 v -4.51221 c 0,-0.0743 0.0598,-0.13405 0.13405,-0.13405 z" />
      <path
         d="m 127.00763,148.2885 h 0.19396 c 0.0743,0 0.13404,0.0598 0.13404,0.13404 v 4.51221 c 0,0.0743 -0.0598,0.13405 -0.13404,0.13405 h -0.19396 c -0.0743,0 -0.13404,-0.0598 -0.13404,-0.13405 v -4.51221 c 0,-0.0743 0.0598,-0.13404 0.13404,-0.13404 z"
         ry="0.13404642"
         y="148.2885"
         x="126.87359"
         height="4.7802997"
         width="0.46204346"
         id="path4045"
         style="fill:#000000;fill-opacity:1;stroke:none;stroke-width:2.84374;stroke-opacity:1" />
      <path
         style="fill:#000000;fill-opacity:1;stroke:none;stroke-width:2.84374;stroke-opacity:1"
         id="path4047"
         width="0.46204346"
         height="4.7802997"
         x="127.85337"
         y="148.28848"
         ry="0.13404642"
         d="m 127.98742,148.28848 h 0.19395 c 0.0743,0 0.13404,0.0598 0.13404,0.13405 v 4.51221 c 0,0.0743 -0.0598,0.13404 -0.13404,0.13404 h -0.19395 c -0.0743,0 -0.13405,-0.0598 -0.13405,-0.13404 v -4.51221 c 0,-0.0743 0.0598,-0.13405 0.13405,-0.13405 z" />
      <path
         style="fill:#000000;fill-opacity:1;stroke:none;stroke-width:2.84374;stroke-opacity:1"
         id="path4049"
         width="0.46204346"
         height="4.7802997"
         x="167.79385"
         y="98.660828"
         ry="0.13404642"
         d="m 167.9279,98.660828 h 0.19395 c 0.0743,0 0.13405,0.05978 0.13405,0.134046 v 4.512206 c 0,0.0743 -0.0598,0.13405 -0.13405,0.13405 h -0.19395 c -0.0743,0 -0.13405,-0.0598 -0.13405,-0.13405 v -4.512206 c 0,-0.07426 0.0598,-0.134046 0.13405,-0.134046 z"
         transform="rotate(19.191987)" />
    </g>
  </g>
</svg>
