<?xml version="1.0" encoding="UTF-8" standalone="no"?>
<svg
   xmlns:dc="http://purl.org/dc/elements/1.1/"
   xmlns:cc="http://creativecommons.org/ns#"
   xmlns:rdf="http://www.w3.org/1999/02/22-rdf-syntax-ns#"
   xmlns:svg="http://www.w3.org/2000/svg"
   xmlns="http://www.w3.org/2000/svg"
   xmlns:sodipodi="http://sodipodi.sourceforge.net/DTD/sodipodi-0.dtd"
   xmlns:inkscape="http://www.inkscape.org/namespaces/inkscape"
   inkscape:version="1.0 (4035a4fb49, 2020-05-01)"
   id="svg4072"
   version="1.1"
   viewBox="0 0 4.9707537 5.2973704"
   height="5.2973704mm"
   width="4.9707537mm">
  <defs
     id="defs4066" />
  <sodipodi:namedview
     inkscape:window-maximized="0"
     inkscape:window-y="0"
     inkscape:window-x="182"
     inkscape:window-height="1040"
     inkscape:window-width="1274"
     fit-margin-bottom="0"
     fit-margin-right="0"
     fit-margin-left="0"
     fit-margin-top="0"
     showgrid="false"
     inkscape:document-rotation="0"
     inkscape:current-layer="g4818"
     inkscape:document-units="mm"
     inkscape:cy="9.3414769"
     inkscape:cx="10.004969"
     inkscape:zoom="22.4"
     inkscape:pageshadow="2"
     inkscape:pageopacity="0.0"
     borderopacity="1.0"
     bordercolor="#666666"
     pagecolor="#ffffff"
     id="base" />
  <metadata
     id="metadata4069">
    <rdf:RDF>
      <cc:Work
         rdf:about="">
        <dc:format>image/svg+xml</dc:format>
        <dc:type
           rdf:resource="http://purl.org/dc/dcmitype/StillImage" />
        <dc:title></dc:title>
      </cc:Work>
    </rdf:RDF>
  </metadata>
  <g
     transform="translate(-29.217439,-14.511169)"
     id="layer1"
     inkscape:groupmode="layer"
     inkscape:label="Layer 1">
    <g
       id="g4702"
       transform="translate(-108.24494,-139.05969)">
      <g
         transform="translate(-22.491838,-3.1924082)"
         id="g4818">
        <g
           style="fill:#000000"
           id="g4824"
           transform="translate(-0.17004322,2.0760854)">
          <path
             id="ellipse4820"
             style="fill:#000000;fill-opacity:1;stroke:none;stroke-width:9.09842;stroke-opacity:1"
             d="m 621.80273,547.875 a 5.1265243,5.1269291 0 0 0 -5.07031,5.12695 5.1265243,5.1269291 0 0 0 5.12696,5.12696 5.1265243,5.1269291 0 0 0 5.12695,-5.12696 5.1265243,5.1269291 0 0 0 -5.12695,-5.12695 5.1265243,5.1269291 0 0 0 -0.0566,0 z m -0.0254,0.66406 a 4.4636118,4.4639645 0 0 1 0.082,0 4.4636118,4.4639645 0 0 1 4.46289,4.46289 4.4636118,4.4639645 0 0 1 -4.46289,4.46485 4.4636118,4.4639645 0 0 1 -4.4629,-4.46485 4.4636118,4.4639645 0 0 1 4.38086,-4.46289 z"
             transform="matrix(0.26458333,0,0,0.26458333,-1.8942728,9.7286107)" />
          <path
             id="path4822"
             style="fill:#000000;fill-opacity:1;stroke:none;stroke-width:13.8876;stroke-opacity:1"
             d="m 617.05078,561.29883 a 9.3935845,7.6195276 0 0 0 -4.69726,6.59765 h 0.88476 a 8.5097015,6.9025727 0 0 1 4.25391,-5.97656 8.5097015,6.9025727 0 0 1 8.50976,0 8.5097015,6.9025727 0 0 1 4.25586,5.97656 h 0.88281 a 9.3935845,7.6195276 0 0 0 -4.69531,-6.59765 9.3935845,7.6195276 0 0 0 -9.39453,0 z"
             transform="matrix(0.26458333,0,0,0.26458333,-1.8942728,9.7286107)" />
        </g>
      </g>
    </g>
  </g>
</svg>
